<svg xmlns="http://www.w3.org/2000/svg" version="1.1" xmlns:xlink="http://www.w3.org/1999/xlink" width="1000" height="1000"><style>
    #light-icon {
      display: inline;
    }
    #dark-icon {
      display: none;
    }

    @media (prefers-color-scheme: dark) {
      #light-icon {
        display: none;
      }
      #dark-icon {
        display: inline;
      }
    }
  </style><g id="light-icon"><svg xmlns="http://www.w3.org/2000/svg" version="1.1" xmlns:xlink="http://www.w3.org/1999/xlink" width="1000" height="1000"><g><g transform="matrix(4.11522633744856,0,0,4.11522633744856,0,0)"><svg xmlns="http://www.w3.org/2000/svg" version="1.1" xmlns:xlink="http://www.w3.org/1999/xlink" width="243" height="243"><svg xmlns="http://www.w3.org/2000/svg" xml:space="preserve" fill-rule="evenodd" stroke-linecap="round" stroke-linejoin="round" stroke-miterlimit="1.5" clip-rule="evenodd" viewBox="0 0 243 243"><g transform="translate(-407.67 -788.08)scale(.4415)"><path fill="url(#a)" d="M1465.336 1925.69v267.523c0 73.825-59.937 133.761-133.762 133.761h-267.523c-73.825 0-133.761-59.936-133.761-133.761V1925.69c0-73.825 59.936-133.762 133.761-133.762h267.523c73.825 0 133.762 59.937 133.762 133.762"></path><clipPath id="b"><path d="M1465.336 1925.69v267.523c0 73.825-59.937 133.761-133.762 133.761h-267.523c-73.825 0-133.761-59.936-133.761-133.761V1925.69c0-73.825 59.936-133.762 133.761-133.762h267.523c73.825 0 133.762 59.937 133.762 133.762"></path></clipPath><g stroke="#fff" clip-path="url(#b)"><path fill="url(#c)" stroke-width="6.02" d="m1130.969 2212.437-374.204-.066q-1.21.044-2.43.044c-36.814 0-66.702-29.888-66.702-66.701 0-36.814 29.888-66.702 66.702-66.702q1.327 0 2.642.052a92 92 0 0 1-.036-2.576c0-50.973 41.384-92.356 92.356-92.356 12.546 0 24.511 2.507 35.421 7.047q-.031-1.395-.031-2.796c0-67.964 55.178-123.141 123.141-123.141s123.141 55.177 123.141 123.141z" transform="matrix(-2.29598 0 0 2.29598 3305.508 -2223.114)"></path><ellipse cx="830.167" cy="590.45" fill="url(#d)" stroke-width="6.28" rx="77.566" ry="71.234" transform="matrix(2.10304 0 0 2.28997 -548.058 707.337)"></ellipse><path fill="url(#e)" stroke-width="10.86" d="m1130.969 2212.437-374.204-.066q-1.21.044-2.43.044c-36.814 0-66.702-29.888-66.702-66.701 0-36.814 29.888-66.702 66.702-66.702q1.327 0 2.642.052a92 92 0 0 1-.036-2.576c0-50.973 41.384-92.356 92.356-92.356 12.546 0 24.511 2.507 35.421 7.047q-.031-1.395-.031-2.796c0-67.964 55.178-123.141 123.141-123.141s123.141 55.177 123.141 123.141z" transform="translate(153.872 -389.99)scale(1.2717)"></path></g><path fill="none" stroke="#fff" stroke-width="13.81" d="M1465.336 1925.69v267.523c0 73.825-59.937 133.761-133.762 133.761h-267.523c-73.825 0-133.761-59.936-133.761-133.761V1925.69c0-73.825 59.936-133.762 133.761-133.762h267.523c73.825 0 133.762 59.937 133.762 133.762"></path></g><defs><linearGradient id="a" x1="0" x2="1" y1="0" y2="0" gradientTransform="translate(930.29 2059.451)scale(535.04577)" gradientUnits="userSpaceOnUse"><stop offset="0" stop-color="#ffd500"></stop><stop offset="1" stop-color="#f2af0d"></stop></linearGradient><linearGradient id="c" x1="0" x2="1" y1="0" y2="0" gradientTransform="matrix(443.3358 0 0 347.19567 687.633 2038.84)" gradientUnits="userSpaceOnUse"><stop offset="0" stop-color="#1e2876"></stop><stop offset=".52" stop-color="#2353cc"></stop><stop offset="1" stop-color="#2563eb"></stop></linearGradient><linearGradient id="d" x1="0" x2="1" y1="0" y2="0" gradientTransform="matrix(155.13161 0 0 142.4678 752.601 590.45)" gradientUnits="userSpaceOnUse"><stop offset="0" stop-color="#fff946"></stop><stop offset="1" stop-color="#ffc500"></stop></linearGradient><linearGradient id="e" x1="0" x2="1" y1="0" y2="0" gradientTransform="matrix(443.3358 0 0 347.19567 687.633 2038.84)" gradientUnits="userSpaceOnUse"><stop offset="0" stop-color="#38a6fa"></stop><stop offset="1" stop-color="#0579d1"></stop></linearGradient></defs></svg></svg></g></g></svg></g><g id="dark-icon"><svg xmlns="http://www.w3.org/2000/svg" version="1.1" xmlns:xlink="http://www.w3.org/1999/xlink" width="1000" height="1000"><g><g transform="matrix(4.11522633744856,0,0,4.11522633744856,0,0)"><svg xmlns="http://www.w3.org/2000/svg" version="1.1" xmlns:xlink="http://www.w3.org/1999/xlink" width="243" height="243"><svg viewBox="0 0 243 243" xmlns="http://www.w3.org/2000/svg" style="fill-rule:evenodd;clip-rule:evenodd;stroke-linecap:round;stroke-linejoin:round;stroke-miterlimit:1.5"><g transform="matrix(1,0,0,1,-1260.367385,-816.628344)"><g transform="matrix(1,0,0,1,31.69544,-40.134591)"><g transform="matrix(0.442211,0,0,0.442211,820.340895,67.405594)"><path d="M1465.336,1925.69L1465.336,2193.213C1465.336,2267.038 1405.399,2326.974 1331.574,2326.974L1064.051,2326.974C990.226,2326.974 930.29,2267.038 930.29,2193.213L930.29,1925.69C930.29,1851.865 990.226,1791.928 1064.051,1791.928L1331.574,1791.928C1405.399,1791.928 1465.336,1851.865 1465.336,1925.69Z" style="fill:url(#_Linear1)"></path><clipPath id="_clip2"><path d="M1465.336,1925.69L1465.336,2193.213C1465.336,2267.038 1405.399,2326.974 1331.574,2326.974L1064.051,2326.974C990.226,2326.974 930.29,2267.038 930.29,2193.213L930.29,1925.69C930.29,1851.865 990.226,1791.928 1064.051,1791.928L1331.574,1791.928C1405.399,1791.928 1465.336,1851.865 1465.336,1925.69Z"></path></clipPath><g clip-path="url(#_clip2)"><g transform="matrix(2.295984,0,0,2.295984,-909.75118,-2223.113996)"><path d="M1130.969,2212.437L756.765,2212.371C755.959,2212.4 755.148,2212.415 754.335,2212.415C717.521,2212.415 687.633,2182.527 687.633,2145.714C687.633,2108.9 717.521,2079.012 754.335,2079.012C755.22,2079.012 756.1,2079.029 756.977,2079.064C756.953,2078.208 756.941,2077.349 756.941,2076.488C756.941,2025.515 798.325,1984.132 849.297,1984.132C861.843,1984.132 873.808,1986.639 884.718,1991.179C884.697,1990.249 884.687,1989.317 884.687,1988.383C884.687,1920.419 939.865,1865.242 1007.828,1865.242C1075.792,1865.242 1130.969,1920.419 1130.969,1988.383L1130.969,2212.437Z" style="fill:url(#_Linear3);stroke:white;stroke-width:6.02px"></path></g><g transform="matrix(-2.103036,0,0,2.289973,2970.201167,680.819616)"><path d="M812.641,521.045C831.752,526.364 845.68,542.678 845.68,561.956C845.68,585.545 824.826,604.697 799.14,604.697C778.149,604.697 760.385,591.906 754.593,574.355C753.29,579.528 752.601,584.916 752.601,590.45C752.601,629.765 787.357,661.684 830.167,661.684C872.977,661.684 907.733,629.765 907.733,590.45C907.733,551.135 872.977,519.216 830.167,519.216C824.14,519.216 818.274,519.849 812.641,521.045Z" style="fill:url(#_Linear4);stroke:white;stroke-width:6.28px"></path></g><g transform="matrix(-1.271701,0,0,1.271701,2241.884448,-389.989186)"><path d="M1130.969,2212.437L756.765,2212.371C755.959,2212.4 755.148,2212.415 754.335,2212.415C717.521,2212.415 687.633,2182.527 687.633,2145.714C687.633,2108.9 717.521,2079.012 754.335,2079.012C755.22,2079.012 756.1,2079.029 756.977,2079.064C756.953,2078.208 756.941,2077.349 756.941,2076.488C756.941,2025.515 798.325,1984.132 849.297,1984.132C861.843,1984.132 873.808,1986.639 884.718,1991.179C884.697,1990.249 884.687,1989.317 884.687,1988.383C884.687,1920.419 939.865,1865.242 1007.828,1865.242C1075.792,1865.242 1130.969,1920.419 1130.969,1988.383L1130.969,2212.437Z" style="fill:url(#_Linear5);stroke:white;stroke-width:10.86px"></path></g></g><path d="M1465.336,1925.69L1465.336,2193.213C1465.336,2267.038 1405.399,2326.974 1331.574,2326.974L1064.051,2326.974C990.226,2326.974 930.29,2267.038 930.29,2193.213L930.29,1925.69C930.29,1851.865 990.226,1791.928 1064.051,1791.928L1331.574,1791.928C1405.399,1791.928 1465.336,1851.865 1465.336,1925.69Z" style="fill:none;stroke:white;stroke-width:13.81px"></path></g></g></g><defs><linearGradient id="_Linear1" x1="0" y1="0" x2="1" y2="0" gradientUnits="userSpaceOnUse" gradientTransform="matrix(535.045766,0,0,535.045766,930.289969,2059.451306)"><stop offset="0" style="stop-color:rgb(30,40,118);stop-opacity:1"></stop><stop offset="1" style="stop-color:rgb(15,13,37);stop-opacity:1"></stop></linearGradient><linearGradient id="_Linear3" x1="0" y1="0" x2="1" y2="0" gradientUnits="userSpaceOnUse" gradientTransform="matrix(443.335808,0,0,347.195675,687.633437,2038.839582)"><stop offset="0" style="stop-color:rgb(34,70,177);stop-opacity:1"></stop><stop offset="1" style="stop-color:rgb(30,27,75);stop-opacity:1"></stop></linearGradient><linearGradient id="_Linear4" x1="0" y1="0" x2="1" y2="0" gradientUnits="userSpaceOnUse" gradientTransform="matrix(155.131613,0,0,142.467807,752.600984,590.449913)"><stop offset="0" style="stop-color:rgb(230,227,137);stop-opacity:1"></stop><stop offset="1" style="stop-color:rgb(204,204,204);stop-opacity:1"></stop></linearGradient><linearGradient id="_Linear5" x1="0" y1="0" x2="1" y2="0" gradientUnits="userSpaceOnUse" gradientTransform="matrix(443.335808,0,0,347.195675,687.633437,2038.839582)"><stop offset="0" style="stop-color:rgb(34,70,177);stop-opacity:1"></stop><stop offset="0.52" style="stop-color:rgb(36,91,220);stop-opacity:1"></stop><stop offset="1" style="stop-color:rgb(37,99,235);stop-opacity:1"></stop></linearGradient></defs></svg></svg></g></g></svg></g></svg>