<svg xmlns="http://www.w3.org/2000/svg" xml:space="preserve" fill-rule="evenodd" stroke-linecap="round" stroke-linejoin="round" stroke-miterlimit="1.5" clip-rule="evenodd" viewBox="0 0 243 243"><g transform="translate(-407.67 -788.08)scale(.4415)"><path fill="url(#a)" d="M1465.336 1925.69v267.523c0 73.825-59.937 133.761-133.762 133.761h-267.523c-73.825 0-133.761-59.936-133.761-133.761V1925.69c0-73.825 59.936-133.762 133.761-133.762h267.523c73.825 0 133.762 59.937 133.762 133.762"/><clipPath id="b"><path d="M1465.336 1925.69v267.523c0 73.825-59.937 133.761-133.762 133.761h-267.523c-73.825 0-133.761-59.936-133.761-133.761V1925.69c0-73.825 59.936-133.762 133.761-133.762h267.523c73.825 0 133.762 59.937 133.762 133.762"/></clipPath><g stroke="#fff" clip-path="url(#b)"><path fill="url(#c)" stroke-width="6.02" d="m1130.969 2212.437-374.204-.066q-1.21.044-2.43.044c-36.814 0-66.702-29.888-66.702-66.701 0-36.814 29.888-66.702 66.702-66.702q1.327 0 2.642.052a92 92 0 0 1-.036-2.576c0-50.973 41.384-92.356 92.356-92.356 12.546 0 24.511 2.507 35.421 7.047q-.031-1.395-.031-2.796c0-67.964 55.178-123.141 123.141-123.141s123.141 55.177 123.141 123.141z" transform="matrix(-2.29598 0 0 2.29598 3305.508 -2223.114)"/><ellipse cx="830.167" cy="590.45" fill="url(#d)" stroke-width="6.28" rx="77.566" ry="71.234" transform="matrix(2.10304 0 0 2.28997 -548.058 707.337)"/><path fill="url(#e)" stroke-width="10.86" d="m1130.969 2212.437-374.204-.066q-1.21.044-2.43.044c-36.814 0-66.702-29.888-66.702-66.701 0-36.814 29.888-66.702 66.702-66.702q1.327 0 2.642.052a92 92 0 0 1-.036-2.576c0-50.973 41.384-92.356 92.356-92.356 12.546 0 24.511 2.507 35.421 7.047q-.031-1.395-.031-2.796c0-67.964 55.178-123.141 123.141-123.141s123.141 55.177 123.141 123.141z" transform="translate(153.872 -389.99)scale(1.2717)"/></g><path fill="none" stroke="#fff" stroke-width="13.81" d="M1465.336 1925.69v267.523c0 73.825-59.937 133.761-133.762 133.761h-267.523c-73.825 0-133.761-59.936-133.761-133.761V1925.69c0-73.825 59.936-133.762 133.761-133.762h267.523c73.825 0 133.762 59.937 133.762 133.762"/></g><defs><linearGradient id="a" x1="0" x2="1" y1="0" y2="0" gradientTransform="translate(930.29 2059.451)scale(535.04577)" gradientUnits="userSpaceOnUse"><stop offset="0" stop-color="#ffd500"/><stop offset="1" stop-color="#f2af0d"/></linearGradient><linearGradient id="c" x1="0" x2="1" y1="0" y2="0" gradientTransform="matrix(443.3358 0 0 347.19567 687.633 2038.84)" gradientUnits="userSpaceOnUse"><stop offset="0" stop-color="#1e2876"/><stop offset=".52" stop-color="#2353cc"/><stop offset="1" stop-color="#2563eb"/></linearGradient><linearGradient id="d" x1="0" x2="1" y1="0" y2="0" gradientTransform="matrix(155.13161 0 0 142.4678 752.601 590.45)" gradientUnits="userSpaceOnUse"><stop offset="0" stop-color="#fff946"/><stop offset="1" stop-color="#ffc500"/></linearGradient><linearGradient id="e" x1="0" x2="1" y1="0" y2="0" gradientTransform="matrix(443.3358 0 0 347.19567 687.633 2038.84)" gradientUnits="userSpaceOnUse"><stop offset="0" stop-color="#38a6fa"/><stop offset="1" stop-color="#0579d1"/></linearGradient></defs></svg>