<?xml version="1.0" encoding="UTF-8" standalone="no"?>
<!DOCTYPE svg PUBLIC "-//W3C//DTD SVG 1.1//EN" "http://www.w3.org/Graphics/SVG/1.1/DTD/svg11.dtd">
<svg width="100%" height="100%" viewBox="0 0 501 501" version="1.1" xmlns="http://www.w3.org/2000/svg" xmlns:xlink="http://www.w3.org/1999/xlink" xml:space="preserve" xmlns:serif="http://www.serif.com/" style="fill-rule:evenodd;clip-rule:evenodd;stroke-linecap:round;stroke-linejoin:round;stroke-miterlimit:1.5;">
    <g transform="matrix(1,0,0,1,-989.698163,-1503.47769)">
        <g transform="matrix(-0.905066,0,0,0.905066,2324.257699,-110.003261)">
            <path d="M1465.336,1925.69L1465.336,2193.213C1465.336,2267.038 1405.399,2326.974 1331.574,2326.974L1064.051,2326.974C990.226,2326.974 930.29,2267.038 930.29,2193.213L930.29,1925.69C930.29,1851.865 990.226,1791.928 1064.051,1791.928L1331.574,1791.928C1405.399,1791.928 1465.336,1851.865 1465.336,1925.69Z" style="fill:rgb(30,27,75);"/>
            <clipPath id="_clip1">
                <path d="M1465.336,1925.69L1465.336,2193.213C1465.336,2267.038 1405.399,2326.974 1331.574,2326.974L1064.051,2326.974C990.226,2326.974 930.29,2267.038 930.29,2193.213L930.29,1925.69C930.29,1851.865 990.226,1791.928 1064.051,1791.928L1331.574,1791.928C1405.399,1791.928 1465.336,1851.865 1465.336,1925.69Z"/>
            </clipPath>
            <g clip-path="url(#_clip1)">
                <g transform="matrix(1.104891,0,0,1.104891,-238.9668,-274.385143)">
                    <circle cx="1107.45" cy="2339.431" r="228.494" style="fill:rgb(30,40,118);stroke:white;stroke-width:16.67px;"/>
                </g>
                <g transform="matrix(2.103036,0,0,2.289973,-574.575462,680.819616)">
                    <path d="M812.641,521.045C831.752,526.364 845.68,542.678 845.68,561.956C845.68,585.545 824.826,604.697 799.14,604.697C778.149,604.697 760.385,591.906 754.593,574.355C753.29,579.528 752.601,584.916 752.601,590.45C752.601,629.765 787.357,661.684 830.167,661.684C872.977,661.684 907.733,629.765 907.733,590.45C907.733,551.135 872.977,519.216 830.167,519.216C824.14,519.216 818.274,519.849 812.641,521.045Z" style="fill:rgb(204,204,204);stroke:white;stroke-width:8.38px;"/>
                </g>
                <g transform="matrix(1.271701,0,0,1.271701,153.872033,-389.989186)">
                    <path d="M883.949,2162.113C873.246,2166.453 861.549,2168.844 849.297,2168.844C838.539,2168.844 828.208,2167 818.603,2163.612C810.774,2191.745 784.949,2212.415 754.335,2212.415C717.521,2212.415 687.633,2182.527 687.633,2145.714C687.633,2108.9 717.521,2079.012 754.335,2079.012C755.22,2079.012 756.1,2079.029 756.977,2079.064C756.953,2078.208 756.941,2077.349 756.941,2076.488C756.941,2025.515 798.325,1984.132 849.297,1984.132C861.843,1984.132 873.808,1986.639 884.718,1991.179C884.697,1990.249 884.687,1989.317 884.687,1988.383C884.687,1920.419 939.865,1865.242 1007.828,1865.242C1075.792,1865.242 1130.969,1920.419 1130.969,1988.383C1130.969,2011.235 1124.731,2032.642 1113.865,2050.992L1130.969,2050.992L1130.969,2241.346L883.949,2241.346L883.949,2162.113Z" style="fill:rgb(37,99,235);stroke:white;stroke-width:14.48px;"/>
                </g>
            </g>
            <path d="M1465.336,1925.69L1465.336,2193.213C1465.336,2267.038 1405.399,2326.974 1331.574,2326.974L1064.051,2326.974C990.226,2326.974 930.29,2267.038 930.29,2193.213L930.29,1925.69C930.29,1851.865 990.226,1791.928 1064.051,1791.928L1331.574,1791.928C1405.399,1791.928 1465.336,1851.865 1465.336,1925.69Z" style="fill:none;stroke:white;stroke-width:18.41px;"/>
        </g>
    </g>
</svg>
