<svg viewBox="0 0 243 243" xmlns="http://www.w3.org/2000/svg" style="fill-rule:evenodd;clip-rule:evenodd;stroke-linecap:round;stroke-linejoin:round;stroke-miterlimit:1.5"><g transform="matrix(1,0,0,1,-1260.367385,-248.973983)"><g transform="matrix(1,0,0,1,31.69544,-40.134591)"><g transform="matrix(0.442211,0,0,0.442211,820.340895,-500.248767)"><path d="M1465.336,1925.69L1465.336,2193.213C1465.336,2267.038 1405.399,2326.974 1331.574,2326.974L1064.051,2326.974C990.226,2326.974 930.29,2267.038 930.29,2193.213L930.29,1925.69C930.29,1851.865 990.226,1791.928 1064.051,1791.928L1331.574,1791.928C1405.399,1791.928 1465.336,1851.865 1465.336,1925.69Z" style="fill:url(#_Linear1)"/><clipPath id="_clip2"><path d="M1465.336,1925.69L1465.336,2193.213C1465.336,2267.038 1405.399,2326.974 1331.574,2326.974L1064.051,2326.974C990.226,2326.974 930.29,2267.038 930.29,2193.213L930.29,1925.69C930.29,1851.865 990.226,1791.928 1064.051,1791.928L1331.574,1791.928C1405.399,1791.928 1465.336,1851.865 1465.336,1925.69Z"/></clipPath><g clip-path="url(#_clip2)"><g transform="matrix(-2.103036,0,0,2.289973,2932.634864,717.281027)"><path d="M812.641,521.045C831.752,526.364 845.68,542.678 845.68,561.956C845.68,585.545 824.826,604.697 799.14,604.697C778.149,604.697 760.385,591.906 754.593,574.355C753.29,579.528 752.601,584.916 752.601,590.45C752.601,629.765 787.357,661.684 830.167,661.684C872.977,661.684 907.733,629.765 907.733,590.45C907.733,551.135 872.977,519.216 830.167,519.216C824.14,519.216 818.274,519.849 812.641,521.045Z" style="fill:url(#_Linear3);stroke:white;stroke-width:6.28px"/></g><g transform="matrix(0.556374,0,0,0.556374,458.581792,1275.246112)"><path d="M1556.958,1075.647L1579.13,1135.568L1639.051,1157.741L1579.13,1179.913L1556.958,1239.834L1534.785,1179.913L1474.864,1157.741L1534.785,1135.568L1556.958,1075.647Z" style="fill:url(#_Linear4);stroke:white;stroke-width:24.82px"/></g></g><path d="M1465.336,1925.69L1465.336,2193.213C1465.336,2267.038 1405.399,2326.974 1331.574,2326.974L1064.051,2326.974C990.226,2326.974 930.29,2267.038 930.29,2193.213L930.29,1925.69C930.29,1851.865 990.226,1791.928 1064.051,1791.928L1331.574,1791.928C1405.399,1791.928 1465.336,1851.865 1465.336,1925.69Z" style="fill:none;stroke:white;stroke-width:13.81px"/></g></g></g><defs><linearGradient id="_Linear1" x1="0" y1="0" x2="1" y2="0" gradientUnits="userSpaceOnUse" gradientTransform="matrix(535.045766,0,0,535.045766,930.289969,2059.451306)"><stop offset="0" style="stop-color:rgb(30,40,118);stop-opacity:1"/><stop offset="1" style="stop-color:rgb(15,13,37);stop-opacity:1"/></linearGradient><linearGradient id="_Linear3" x1="0" y1="0" x2="1" y2="0" gradientUnits="userSpaceOnUse" gradientTransform="matrix(155.131613,0,0,142.467807,752.600984,590.449913)"><stop offset="0" style="stop-color:rgb(230,227,137);stop-opacity:1"/><stop offset="1" style="stop-color:rgb(204,204,204);stop-opacity:1"/></linearGradient><linearGradient id="_Linear4" x1="0" y1="0" x2="1" y2="0" gradientUnits="userSpaceOnUse" gradientTransform="matrix(164.186965,0,0,164.186965,1474.864293,1157.740793)"><stop offset="0" style="stop-color:rgb(255,249,70);stop-opacity:1"/><stop offset="1" style="stop-color:rgb(255,197,0);stop-opacity:1"/></linearGradient></defs></svg>