<svg viewBox="0 0 243 243" version="1.1" xmlns="http://www.w3.org/2000/svg"  xml:space="preserve"  style="fill-rule:evenodd;clip-rule:evenodd;stroke-linecap:round;stroke-linejoin:round;stroke-miterlimit:1.5;"><g transform="matrix(1,0,0,1,-976.691527,-249.361755)"><g transform="matrix(1,0,0,1,31.69544,-40.134591)"><g transform="matrix(0.441496,0,0,0.441496,537.325729,-498.583792)"><path d="M1465.336,1925.69L1465.336,2193.213C1465.336,2267.038 1405.399,2326.974 1331.574,2326.974L1064.051,2326.974C990.226,2326.974 930.29,2267.038 930.29,2193.213L930.29,1925.69C930.29,1851.865 990.226,1791.928 1064.051,1791.928L1331.574,1791.928C1405.399,1791.928 1465.336,1851.865 1465.336,1925.69Z" style="fill:url(#_Linear1);"/><clipPath id="_clip2"><path d="M1465.336,1925.69L1465.336,2193.213C1465.336,2267.038 1405.399,2326.974 1331.574,2326.974L1064.051,2326.974C990.226,2326.974 930.29,2267.038 930.29,2193.213L930.29,1925.69C930.29,1851.865 990.226,1791.928 1064.051,1791.928L1331.574,1791.928C1405.399,1791.928 1465.336,1851.865 1465.336,1925.69Z"/></clipPath><g clip-path="url(#_clip2)"><g transform="matrix(1.104891,0,0,4.89282,-172.426304,-5497.389662)"><path d="M1240.157,1606.299L1240.157,1483.378" style="fill:none;stroke:white;stroke-width:5.19px;"/></g><g transform="matrix(-0,-1.104891,4.89282,-0,-6360.805156,3431.467503)"><path d="M1240.157,1606.299L1240.157,1483.378" style="fill:none;stroke:white;stroke-width:5.19px;"/></g><g transform="matrix(0.956864,0.552446,-3.264011,5.653433,5059.483087,-7367.859015)"><path d="M1240.157,1606.299L1240.157,1483.378" style="fill:none;stroke:white;stroke-width:3.93px;"/></g><g transform="matrix(0.552446,-0.956864,5.745775,3.317325,-8348.069659,-1867.873599)"><path d="M1240.157,1606.299L1240.157,1483.378" style="fill:none;stroke:white;stroke-width:3.87px;"/></g><g transform="matrix(0.552446,0.956864,-6.764474,3.905471,10976.896191,-5166.943944)"><path d="M1240.157,1606.299L1240.157,1483.378" style="fill:none;stroke:white;stroke-width:3.3px;"/></g><g transform="matrix(0.956864,-0.552446,3.264011,5.653433,-5025.258507,-5976.969114)"><path d="M1240.157,1606.299L1240.157,1483.378" style="fill:none;stroke:white;stroke-width:3.93px;"/></g><g transform="matrix(2.103036,0,0,2.289973,-548.058072,707.337006)"><ellipse cx="830.167" cy="590.45" rx="77.566" ry="71.234" style="fill:url(#_Linear3);stroke:white;stroke-width:6.28px;"/></g></g><path d="M1465.336,1925.69L1465.336,2193.213C1465.336,2267.038 1405.399,2326.974 1331.574,2326.974L1064.051,2326.974C990.226,2326.974 930.29,2267.038 930.29,2193.213L930.29,1925.69C930.29,1851.865 990.226,1791.928 1064.051,1791.928L1331.574,1791.928C1405.399,1791.928 1465.336,1851.865 1465.336,1925.69Z" style="fill:none;stroke:white;stroke-width:13.81px;"/></g></g></g><defs><linearGradient id="_Linear1" x1="0" y1="0" x2="1" y2="0" gradientUnits="userSpaceOnUse" gradientTransform="matrix(535.045766,0,0,535.045766,930.289969,2059.451306)"><stop offset="0" style="stop-color:rgb(255,213,0);stop-opacity:1"/><stop offset="1" style="stop-color:rgb(242,175,13);stop-opacity:1"/></linearGradient><linearGradient id="_Linear3" x1="0" y1="0" x2="1" y2="0" gradientUnits="userSpaceOnUse" gradientTransform="matrix(155.131613,0,0,142.467807,752.600984,590.449913)"><stop offset="0" style="stop-color:rgb(255,249,70);stop-opacity:1"/><stop offset="1" style="stop-color:rgb(255,197,0);stop-opacity:1"/></linearGradient></defs></svg>