<svg viewBox="0 0 243 243" xmlns="http://www.w3.org/2000/svg" style="fill-rule:evenodd;clip-rule:evenodd;stroke-linecap:round;stroke-linejoin:round;stroke-miterlimit:1.5"><g transform="matrix(1,0,0,1,-1544.431015,-816.628344)"><g transform="matrix(1,0,0,1,31.69544,-40.134591)"><g transform="matrix(0.442211,0,0,0.442211,1104.404525,67.405594)"><path d="M1465.336,1925.69L1465.336,2193.213C1465.336,2267.038 1405.399,2326.974 1331.574,2326.974L1064.051,2326.974C990.226,2326.974 930.29,2267.038 930.29,2193.213L930.29,1925.69C930.29,1851.865 990.226,1791.928 1064.051,1791.928L1331.574,1791.928C1405.399,1791.928 1465.336,1851.865 1465.336,1925.69Z" style="fill:url(#_Linear1)"/><clipPath id="_clip2"><path d="M1465.336,1925.69L1465.336,2193.213C1465.336,2267.038 1405.399,2326.974 1331.574,2326.974L1064.051,2326.974C990.226,2326.974 930.29,2267.038 930.29,2193.213L930.29,1925.69C930.29,1851.865 990.226,1791.928 1064.051,1791.928L1331.574,1791.928C1405.399,1791.928 1465.336,1851.865 1465.336,1925.69Z"/></clipPath><g clip-path="url(#_clip2)"><g transform="matrix(2.295984,0,0,-2.295984,-909.75118,6344.687649)"><path d="M1130.969,2212.437L756.765,2212.371C755.959,2212.4 755.148,2212.415 754.335,2212.415C717.521,2212.415 687.633,2182.527 687.633,2145.714C687.633,2108.9 717.521,2079.012 754.335,2079.012C755.22,2079.012 756.1,2079.029 756.977,2079.064C756.953,2078.208 756.941,2077.349 756.941,2076.488C756.941,2025.515 798.325,1984.132 849.297,1984.132C861.843,1984.132 873.808,1986.639 884.718,1991.179C884.697,1990.249 884.687,1989.317 884.687,1988.383C884.687,1920.419 939.865,1865.242 1007.828,1865.242C1075.792,1865.242 1130.969,1920.419 1130.969,1988.383L1130.969,2212.437Z" style="fill:url(#_Linear3);stroke:white;stroke-width:6.02px"/></g><g transform="matrix(-1.271701,0,0,-1.271701,2241.884448,4511.562839)"><path d="M1130.969,2212.437L756.765,2212.371C755.959,2212.4 755.148,2212.415 754.335,2212.415C717.521,2212.415 687.633,2182.527 687.633,2145.714C687.633,2108.9 717.521,2079.012 754.335,2079.012C755.22,2079.012 756.1,2079.029 756.977,2079.064C756.953,2078.208 756.941,2077.349 756.941,2076.488C756.941,2025.515 798.325,1984.132 849.297,1984.132C861.843,1984.132 873.808,1986.639 884.718,1991.179C884.697,1990.249 884.687,1989.317 884.687,1988.383C884.687,1920.419 939.865,1865.242 1007.828,1865.242C1075.792,1865.242 1130.969,1920.419 1130.969,1988.383L1130.969,2212.437Z" style="fill:url(#_Linear4);stroke:white;stroke-width:10.86px"/></g><g transform="matrix(0.314701,0,0,0.343695,855.855745,1975.782168)"><path d="M898.391,556.552C904.348,566.634 907.733,578.182 907.733,590.45C907.733,629.765 872.977,661.684 830.167,661.684C787.357,661.684 752.601,629.765 752.601,590.45C752.601,578.182 755.985,566.634 761.942,556.552L830.167,433.868L898.391,556.552Z" style="fill:url(#_Linear5);stroke:white;stroke-width:41.91px"/></g><g transform="matrix(0.314701,0,0,0.343695,947.56172,2024.56674)"><path d="M898.391,556.552C904.348,566.634 907.733,578.182 907.733,590.45C907.733,629.765 872.977,661.684 830.167,661.684C787.357,661.684 752.601,629.765 752.601,590.45C752.601,578.182 755.985,566.634 761.942,556.552L830.167,433.868L898.391,556.552Z" style="fill:url(#_Linear6);stroke:white;stroke-width:41.91px"/></g><g transform="matrix(0.314701,0,0,0.343695,1014.857517,1940.256292)"><path d="M898.391,556.552C904.348,566.634 907.733,578.182 907.733,590.45C907.733,629.765 872.977,661.684 830.167,661.684C787.357,661.684 752.601,629.765 752.601,590.45C752.601,578.182 755.985,566.634 761.942,556.552L830.167,433.868L898.391,556.552Z" style="fill:url(#_Linear7);stroke:white;stroke-width:41.91px"/></g></g><path d="M1465.336,1925.69L1465.336,2193.213C1465.336,2267.038 1405.399,2326.974 1331.574,2326.974L1064.051,2326.974C990.226,2326.974 930.29,2267.038 930.29,2193.213L930.29,1925.69C930.29,1851.865 990.226,1791.928 1064.051,1791.928L1331.574,1791.928C1405.399,1791.928 1465.336,1851.865 1465.336,1925.69Z" style="fill:none;stroke:white;stroke-width:13.81px"/></g></g></g><defs><linearGradient id="_Linear1" x1="0" y1="0" x2="1" y2="0" gradientUnits="userSpaceOnUse" gradientTransform="matrix(535.045766,0,0,535.045766,930.289969,2059.451306)"><stop offset="0" style="stop-color:rgb(74,73,82);stop-opacity:1"/><stop offset="1" style="stop-color:rgb(33,32,44);stop-opacity:1"/></linearGradient><linearGradient id="_Linear3" x1="0" y1="0" x2="1" y2="0" gradientUnits="userSpaceOnUse" gradientTransform="matrix(443.335808,0,0,347.195675,687.633437,2038.839582)"><stop offset="0" style="stop-color:rgb(34,70,177);stop-opacity:1"/><stop offset="1" style="stop-color:rgb(30,27,75);stop-opacity:1"/></linearGradient><linearGradient id="_Linear4" x1="0" y1="0" x2="1" y2="0" gradientUnits="userSpaceOnUse" gradientTransform="matrix(443.335808,0,0,347.195675,687.633437,2038.839582)"><stop offset="0" style="stop-color:rgb(34,70,177);stop-opacity:1"/><stop offset="0.52" style="stop-color:rgb(36,91,220);stop-opacity:1"/><stop offset="1" style="stop-color:rgb(37,99,235);stop-opacity:1"/></linearGradient><linearGradient id="_Linear5" x1="0" y1="0" x2="1" y2="0" gradientUnits="userSpaceOnUse" gradientTransform="matrix(155.131613,0,0,227.816279,752.600984,547.775678)"><stop offset="0" style="stop-color:rgb(37,99,235);stop-opacity:1"/><stop offset="0.52" style="stop-color:rgb(35,78,192);stop-opacity:1"/><stop offset="1" style="stop-color:rgb(34,70,177);stop-opacity:1"/></linearGradient><linearGradient id="_Linear6" x1="0" y1="0" x2="1" y2="0" gradientUnits="userSpaceOnUse" gradientTransform="matrix(155.131613,0,0,227.816279,752.600984,547.775678)"><stop offset="0" style="stop-color:rgb(37,99,235);stop-opacity:1"/><stop offset="0.52" style="stop-color:rgb(35,78,192);stop-opacity:1"/><stop offset="1" style="stop-color:rgb(34,70,177);stop-opacity:1"/></linearGradient><linearGradient id="_Linear7" x1="0" y1="0" x2="1" y2="0" gradientUnits="userSpaceOnUse" gradientTransform="matrix(155.131613,0,0,227.816279,752.600984,547.775678)"><stop offset="0" style="stop-color:rgb(37,99,235);stop-opacity:1"/><stop offset="0.52" style="stop-color:rgb(35,78,192);stop-opacity:1"/><stop offset="1" style="stop-color:rgb(34,70,177);stop-opacity:1"/></linearGradient></defs></svg>