<svg viewBox="0 0 243 243" version="1.1" xmlns="http://www.w3.org/2000/svg"  xml:space="preserve"  style="fill-rule:evenodd;clip-rule:evenodd;stroke-linecap:round;stroke-linejoin:round;stroke-miterlimit:1.5;"><g transform="matrix(1,0,0,1,-409.060308,-533.901053)"><g transform="matrix(1,0,0,1,31.69544,-40.134591)"><g transform="matrix(0.441496,0,0,0.441496,-30.30549,-214.044494)"><path d="M1465.336,1925.69L1465.336,2193.213C1465.336,2267.038 1405.399,2326.974 1331.574,2326.974L1064.051,2326.974C990.226,2326.974 930.29,2267.038 930.29,2193.213L930.29,1925.69C930.29,1851.865 990.226,1791.928 1064.051,1791.928L1331.574,1791.928C1405.399,1791.928 1465.336,1851.865 1465.336,1925.69Z" style="fill:url(#_Linear1);"/><clipPath id="_clip2"><path d="M1465.336,1925.69L1465.336,2193.213C1465.336,2267.038 1405.399,2326.974 1331.574,2326.974L1064.051,2326.974C990.226,2326.974 930.29,2267.038 930.29,2193.213L930.29,1925.69C930.29,1851.865 990.226,1791.928 1064.051,1791.928L1331.574,1791.928C1405.399,1791.928 1465.336,1851.865 1465.336,1925.69Z"/></clipPath><g clip-path="url(#_clip2)"><g transform="matrix(-2.295984,0,0,-2.295984,3305.507662,6346.897432)"><path d="M1130.969,2212.437L756.765,2212.371C755.959,2212.4 755.148,2212.415 754.335,2212.415C717.521,2212.415 687.633,2182.527 687.633,2145.714C687.633,2108.9 717.521,2079.012 754.335,2079.012C755.22,2079.012 756.1,2079.029 756.977,2079.064C756.953,2078.208 756.941,2077.349 756.941,2076.488C756.941,2025.515 798.325,1984.132 849.297,1984.132C861.843,1984.132 873.808,1986.639 884.718,1991.179C884.697,1990.249 884.687,1989.317 884.687,1988.383C884.687,1920.419 939.865,1865.242 1007.828,1865.242C1075.792,1865.242 1130.969,1920.419 1130.969,1988.383L1130.969,2212.437Z" style="fill:url(#_Linear3);stroke:white;stroke-width:6.02px;"/></g><g transform="matrix(1.271701,0,0,-1.271701,153.872033,4513.772622)"><path d="M1130.969,2212.437L756.765,2212.371C755.959,2212.4 755.148,2212.415 754.335,2212.415C717.521,2212.415 687.633,2182.527 687.633,2145.714C687.633,2108.9 717.521,2079.012 754.335,2079.012C755.22,2079.012 756.1,2079.029 756.977,2079.064C756.953,2078.208 756.941,2077.349 756.941,2076.488C756.941,2025.515 798.325,1984.132 849.297,1984.132C861.843,1984.132 873.808,1986.639 884.718,1991.179C884.697,1990.249 884.687,1989.317 884.687,1988.383C884.687,1920.419 939.865,1865.242 1007.828,1865.242C1075.792,1865.242 1130.969,1920.419 1130.969,1988.383L1130.969,2212.437Z" style="fill:url(#_Linear4);stroke:white;stroke-width:10.86px;"/></g><g><g transform="matrix(1.168712,0,0,1.168712,-153.001449,-349.430006)"><g transform="matrix(1.104891,0,0,1.104891,-172.426304,122.646533)"><path d="M1181.533,1764.89L1202.116,1784.723L1222.621,1764.219" style="fill:none;stroke:white;stroke-width:10.7px;"/></g><g transform="matrix(-1.104891,0,-0,-1.236749,2483.902393,4409.668306)"><path d="M1202.116,1764.89L1202.116,1900.319" style="fill:none;stroke:white;stroke-width:10.08px;"/></g><g transform="matrix(-1.104891,0,-0,-1.104891,2483.902393,4163.746776)"><path d="M1181.533,1764.89L1202.116,1784.723L1222.621,1764.219" style="fill:none;stroke:white;stroke-width:10.7px;"/></g></g><g transform="matrix(0.583827,-1.01244,1.01244,0.583827,-1646.885075,2074.209306)"><g transform="matrix(1.104891,0,0,1.104891,-172.426304,122.646533)"><path d="M1181.533,1764.89L1202.116,1784.723L1222.621,1764.219" style="fill:none;stroke:white;stroke-width:10.7px;"/></g><g transform="matrix(-1.104891,0,-0,-1.236749,2483.902393,4409.668306)"><path d="M1202.116,1764.89L1202.116,1900.319" style="fill:none;stroke:white;stroke-width:10.08px;"/></g><g transform="matrix(-1.104891,0,-0,-1.104891,2483.902393,4163.746776)"><path d="M1181.533,1764.89L1202.116,1784.723L1222.621,1764.219" style="fill:none;stroke:white;stroke-width:10.7px;"/></g></g><g transform="matrix(0.583775,1.01247,-1.01247,0.583775,2692.954607,-265.944515)"><g transform="matrix(1.104891,0,0,1.104891,-172.426304,122.646533)"><path d="M1181.533,1764.89L1202.116,1784.723L1222.621,1764.219" style="fill:none;stroke:white;stroke-width:10.7px;"/></g><g transform="matrix(-1.104891,0,-0,-1.236749,2483.902393,4409.668306)"><path d="M1202.116,1764.89L1202.116,1900.319" style="fill:none;stroke:white;stroke-width:10.08px;"/></g><g transform="matrix(-1.104891,0,-0,-1.104891,2483.902393,4163.746776)"><path d="M1181.533,1764.89L1202.116,1784.723L1222.621,1764.219" style="fill:none;stroke:white;stroke-width:10.7px;"/></g></g><g transform="matrix(1.100519,0,0,1.100519,-135.262652,41.114519)"><circle cx="1211.234" cy="1921.126" r="23.716" style="fill:url(#_Linear5);stroke:white;stroke-width:12.55px;"/></g></g></g><path d="M1465.336,1925.69L1465.336,2193.213C1465.336,2267.038 1405.399,2326.974 1331.574,2326.974L1064.051,2326.974C990.226,2326.974 930.29,2267.038 930.29,2193.213L930.29,1925.69C930.29,1851.865 990.226,1791.928 1064.051,1791.928L1331.574,1791.928C1405.399,1791.928 1465.336,1851.865 1465.336,1925.69Z" style="fill:none;stroke:white;stroke-width:13.81px;"/></g></g></g><defs><linearGradient id="_Linear1" x1="0" y1="0" x2="1" y2="0" gradientUnits="userSpaceOnUse" gradientTransform="matrix(535.045766,0,0,535.045766,930.289969,2059.451306)"><stop offset="0" style="stop-color:rgb(157,173,186);stop-opacity:1"/><stop offset="1" style="stop-color:rgb(122,133,142);stop-opacity:1"/></linearGradient><linearGradient id="_Linear3" x1="0" y1="0" x2="1" y2="0" gradientUnits="userSpaceOnUse" gradientTransform="matrix(443.335808,0,0,347.195675,687.633437,2038.839582)"><stop offset="0" style="stop-color:rgb(30,40,118);stop-opacity:1"/><stop offset="0.52" style="stop-color:rgb(35,83,204);stop-opacity:1"/><stop offset="1" style="stop-color:rgb(37,99,235);stop-opacity:1"/></linearGradient><linearGradient id="_Linear4" x1="0" y1="0" x2="1" y2="0" gradientUnits="userSpaceOnUse" gradientTransform="matrix(443.335808,0,0,347.195675,687.633437,2038.839582)"><stop offset="0" style="stop-color:rgb(56,166,250);stop-opacity:1"/><stop offset="1" style="stop-color:rgb(5,121,209);stop-opacity:1"/></linearGradient><linearGradient id="_Linear5" x1="0" y1="0" x2="1" y2="0" gradientUnits="userSpaceOnUse" gradientTransform="matrix(47.431788,0,0,47.431788,1187.518523,1921.126142)"><stop offset="0" style="stop-color:rgb(56,166,250);stop-opacity:1"/><stop offset="1" style="stop-color:rgb(5,121,209);stop-opacity:1"/></linearGradient></defs></svg>